<svg version="1.1" id="Layer_1" xmlns="http://www.w3.org/2000/svg" xmlns:xlink="http://www.w3.org/1999/xlink" x="0px" y="0px"
	 viewBox="0 0 20 20" style="enable-background:new 0 0 20 20;" xml:space="preserve">
<style type="text/css">
	.st0{fill:#6DA544;}
	.st1{fill:#D80027;}
	.st2{fill:#FFDA44;}
	.st3{fill:#F0F0F0;}
</style>
<g>
	<path class="st0" d="M0,10c0,4.3,2.71,7.97,6.52,9.38L7.39,10L6.52,0.62C2.71,2.03,0,5.7,0,10L0,10z M0,10"/>
	<path class="st1" d="M20,10c0-5.52-4.48-10-10-10C8.78,0,7.6,0.22,6.52,0.62v18.76C7.6,19.78,8.78,20,10,20
		C15.52,20,20,15.52,20,10L20,10z M20,10"/>
	<path class="st2" d="M10,10c0,1.92-1.56,3.48-3.48,3.48c-1.92,0-3.48-1.56-3.48-3.48c0-1.92,1.56-3.48,3.48-3.48
		C8.44,6.52,10,8.08,10,10L10,10z M10,10"/>
	<path class="st1" d="M4.57,8.26v2.17c0,1.08,0.88,1.96,1.96,1.96c1.08,0,1.96-0.88,1.96-1.96V8.26H4.57z M4.57,8.26"/>
	<path class="st3" d="M6.52,11.09c-0.36,0-0.65-0.29-0.65-0.65V9.57h1.3v0.87C7.17,10.79,6.88,11.09,6.52,11.09L6.52,11.09z
		 M6.52,11.09"/>
</g>
</svg>