<svg version="1.1" id="Layer_1" xmlns="http://www.w3.org/2000/svg" xmlns:xlink="http://www.w3.org/1999/xlink" x="0px" y="0px"
	 viewBox="0 0 20 20" style="enable-background:new 0 0 20 20;" xml:space="preserve">
<style type="text/css">
	.st0{fill:#F0F0F0;}
	.st1{fill:#D80027;}
	.st2{fill:#0052B4;}
</style>
<g>
	<path class="st0" d="M20,10c0,5.52-4.48,10-10,10C4.48,20,0,15.52,0,10C0,4.48,4.48,0,10,0C15.52,0,20,4.48,20,10L20,10z M20,10"/>
	<path class="st1" d="M9.57,10H20c0-0.9-0.12-1.78-0.34-2.61H9.57V10z M9.57,10"/>
	<path class="st1" d="M9.57,4.78h8.97c-0.61-1-1.39-1.88-2.31-2.61H9.57V4.78z M9.57,4.78"/>
	<path class="st1" d="M10,20c2.35,0,4.52-0.81,6.22-2.17H3.78C5.48,19.19,7.65,20,10,20L10,20z M10,20"/>
	<path class="st1" d="M1.47,15.22h17.06c0.49-0.8,0.87-1.68,1.12-2.61H0.34C0.6,13.54,0.98,14.42,1.47,15.22L1.47,15.22z
		 M1.47,15.22"/>
	<path class="st2" d="M4.63,1.56h0.91L4.7,2.18l0.32,1L4.17,2.56L3.32,3.17L3.6,2.31C2.86,2.93,2.2,3.66,1.66,4.47h0.29L1.42,4.87
		C1.33,5.01,1.25,5.15,1.17,5.29l0.26,0.79L0.95,5.74C0.83,5.99,0.72,6.25,0.62,6.51l0.28,0.87h1.05L1.11,8l0.32,1L0.58,8.38
		L0.08,8.75C0.03,9.16,0,9.58,0,10h10V0C8.02,0,6.18,0.57,4.63,1.56L4.63,1.56z M5.02,9L4.17,8.38L3.32,9l0.32-1L2.8,7.39h1.05
		l0.32-1l0.32,1h1.05L4.7,8L5.02,9z M4.7,5.09l0.32,1L4.17,5.47L3.32,6.09l0.32-1L2.8,4.47h1.05l0.32-1l0.32,1h1.05L4.7,5.09z
		 M8.61,9L7.76,8.38L6.91,9l0.32-1L6.39,7.39h1.05l0.32-1l0.32,1h1.05L8.28,8L8.61,9z M8.28,5.09l0.32,1L7.76,5.47L6.91,6.09l0.32-1
		L6.39,4.47h1.05l0.32-1l0.32,1h1.05L8.28,5.09z M8.28,2.18l0.32,1L7.76,2.56L6.91,3.17l0.32-1L6.39,1.56h1.05l0.32-1l0.32,1h1.05
		L8.28,2.18z M8.28,2.18"/>
</g>
</svg>