<svg version="1.1" id="Layer_1" xmlns="http://www.w3.org/2000/svg" xmlns:xlink="http://www.w3.org/1999/xlink" x="0px" y="0px"
	 viewBox="0 0 20 20" style="enable-background:new 0 0 20 20;" xml:space="preserve">
<style type="text/css">
	.st0{fill:#F0F0F0;}
	.st1{fill:#D80027;}
	.st2{fill:#6DA544;}
</style>
<g>
	<path class="st0" d="M20,10c0,5.52-4.48,10-10,10C4.48,20,0,15.52,0,10C0,4.48,4.48,0,10,0C15.52,0,20,4.48,20,10L20,10z M20,10"/>
	<path class="st1" d="M13.25,7.39h-1.31c0.01,0.14,0.02,0.29,0.02,0.43c0,0.97-0.24,1.91-0.66,2.57c-0.13,0.21-0.35,0.5-0.64,0.69
		v-3.7h-1.3v3.7c-0.29-0.2-0.51-0.49-0.64-0.69C8.29,9.73,8.04,8.79,8.04,7.83c0-0.15,0.01-0.29,0.02-0.43H6.75
		C6.74,7.53,6.74,7.68,6.74,7.83c0,2.68,1.43,4.78,3.26,4.78c1.83,0,3.26-2.1,3.26-4.78C13.26,7.68,13.26,7.53,13.25,7.39
		L13.25,7.39z M13.25,7.39"/>
	<path class="st2" d="M4.13,4.78h1.3v0.87h1.3V4.78h1.3v0.87h1.3V4.78h1.3v0.87h1.3V4.78h1.3v0.87h1.3V4.78h1.3v0.87h3.14
		C17.39,2.31,13.96,0,10,0C6.04,0,2.61,2.31,0.99,5.65h3.14V4.78z M4.13,4.78"/>
	<path class="st1" d="M15.87,14.35v0.87h-1.3v-0.87h-1.3v0.87h-1.3v-0.87h-1.3v0.87h-1.3v-0.87h-1.3v0.87h-1.3v-0.87h-1.3v0.87h-1.3
		v-0.87H0.99C2.61,17.69,6.04,20,10,20c3.96,0,7.39-2.31,9.01-5.65H15.87z M15.87,14.35"/>
</g>
</svg>