<svg version="1.1" id="Capa_1" xmlns="http://www.w3.org/2000/svg" xmlns:xlink="http://www.w3.org/1999/xlink" x="0px" y="0px"
	 viewBox="159.38 386.62 20 20" style="enable-background:new 159.38 386.62 20 20;" xml:space="preserve">
<style type="text/css">
	.st0{fill:#FFFFFF;}
	.st1{fill:#EFECEC;}
	.st2{fill:#F3F4F5;}
	.st3{fill:#BE2126;}
	.st4{fill:#D32027;}
</style>
<g>
	<circle class="st0" cx="169.38" cy="396.62" r="10"/>
	<path class="st1" d="M178.81,393.28C178.81,393.28,178.81,393.28,178.81,393.28c-1.28-3.62-4.57-6.27-8.53-6.62
		c1.53,0.84,1.98,3.5,2.37,6.62c0.27,2.14,0.27,4.49,0.01,6.63c-0.39,3.14-0.84,5.82-2.37,6.66c3.96-0.35,7.26-3.02,8.53-6.64
		c0-0.01,0.01-0.02,0.01-0.03c0.36-1.03,0.56-2.14,0.56-3.29C179.38,395.45,179.18,394.33,178.81,393.28z"/>
	<path class="st2" d="M173.16,393.28c-0.39-3.13-1.35-5.79-2.88-6.62c-0.3-0.03-0.6-0.04-0.9-0.04c-4.35,0-8.05,2.78-9.43,6.66
		c0,0,0,0.01,0,0.01c-0.37,1.04-0.57,2.16-0.57,3.33c0,1.15,0.2,2.26,0.56,3.29c0,0.01,0.01,0.02,0.01,0.03
		c1.37,3.89,5.07,6.68,9.43,6.68c0.3,0,0.6-0.01,0.9-0.04c1.54-0.84,2.5-3.52,2.89-6.66C173.43,397.77,173.43,395.42,173.16,393.28z
		"/>
	<path class="st3" d="M179.21,394.79h-6.81c0.08,1.15,0.08,2.32,0.01,3.47h6.83c0.09-0.54,0.14-1.09,0.14-1.65
		C179.38,395.99,179.32,395.38,179.21,394.79z"/>
	<path class="st4" d="M173.3,394.79h-4.83v-8.13c-1.24,0.11-2.41,0.45-3.47,0.97v7.16h-5.44c-0.11,0.59-0.17,1.2-0.17,1.83
		c0,0.56,0.05,1.11,0.14,1.65H165v7.34c1.07,0.52,2.24,0.86,3.47,0.97v-8.31h4.85C173.39,397.12,173.38,395.94,173.3,394.79z"/>
</g>
</svg>