<svg version="1.1" id="Capa_1" xmlns="http://www.w3.org/2000/svg" xmlns:xlink="http://www.w3.org/1999/xlink" x="0px" y="0px"
	 viewBox="158.84 387.16 20 20" style="enable-background:new 158.84 387.16 20 20;" xml:space="preserve">
<style type="text/css">
	.st0{fill:#FFFFFF;}
	.st1{fill:#258F44;}
	.st2{fill:#359846;}
	.st3{fill:#EC1C24;}
</style>
<g>
	<g>
		<circle class="st0" cx="168.84" cy="397.16" r="10"/>
		<circle class="st0" cx="168.84" cy="397.16" r="10"/>
	</g>
	<path class="st1" d="M178.27,393.83C178.27,393.82,178.27,393.82,178.27,393.83c-1.28-3.62-4.58-6.27-8.53-6.62
		c1.53,0.84,1.98,3.5,2.37,6.62c0.27,2.14,0.27,4.49,0.01,6.63c-0.39,3.14-0.84,5.82-2.37,6.66c3.96-0.35,7.26-3.02,8.53-6.64
		c0-0.01,0.01-0.02,0.01-0.03c0.36-1.03,0.56-2.14,0.56-3.29C178.84,395.99,178.64,394.87,178.27,393.83z"/>
	<path class="st2" d="M172.62,393.83c-0.39-3.13-1.35-5.79-2.88-6.62c-0.3-0.03-0.6-0.04-0.9-0.04c-4.35,0-8.05,2.78-9.43,6.66
		c0,0,0,0.01,0,0.01c-0.37,1.04-0.57,2.16-0.57,3.33c0,1.15,0.2,2.26,0.56,3.29c0,0.01,0.01,0.02,0.01,0.03
		c1.37,3.89,5.07,6.68,9.43,6.68c0.3,0,0.6-0.01,0.9-0.04c1.54-0.84,2.5-3.52,2.89-6.66C172.89,398.32,172.89,395.96,172.62,393.83z
		"/>
	<circle class="st3" cx="168.84" cy="397.16" r="3.68"/>
</g>
</svg>