<svg version="1.1" id="Capa_1" xmlns="http://www.w3.org/2000/svg" xmlns:xlink="http://www.w3.org/1999/xlink" x="0px" y="0px"
	 viewBox="178 377 58 40" style="enable-background:new 178 377 58 40;" xml:space="preserve">
<style type="text/css">
	.st0{fill:#306FC5;}
	.st1{opacity:0.15;fill:#202121;enable-background:new    ;}
	.st2{fill:#FFFFFF;}
</style>
<path class="st0" d="M236,413.57c0,1.89-1.53,3.43-3.43,3.43h-51.14c-1.89,0-3.43-1.54-3.43-3.43v-33.14c0-1.89,1.53-3.43,3.43-3.43
	h51.14c1.89,0,3.43,1.54,3.43,3.43V413.57L236,413.57z"/>
<path class="st1" d="M180.44,413.57v-33.14c0-1.89,1.54-3.43,3.43-3.43h-2.44c-1.89,0-3.43,1.53-3.43,3.43v33.14
	c0,1.89,1.53,3.43,3.43,3.43h2.44C181.97,417,180.44,415.46,180.44,413.57z"/>
<g>
	<polygon class="st2" points="186.45,393.01 188.18,393.01 187.32,390.8 	"/>
	<polygon class="st2" points="195.67,400.41 195.67,401.43 198.58,401.43 198.58,402.54 195.67,402.54 195.67,403.72 198.9,403.72 
		200.39,402.07 198.97,400.41 	"/>
	<polygon class="st2" points="218.43,390.8 217.48,393.01 219.3,393.01 	"/>
	<polygon class="st2" points="204.09,404.35 204.09,399.86 202.05,402.07 	"/>
	<path class="st2" d="M207.95,401.12c-0.08-0.47-0.39-0.71-0.87-0.71h-1.65v1.42h1.73C207.64,401.83,207.95,401.59,207.95,401.12z"
		/>
	<path class="st2" d="M213.47,401.67c0.16-0.08,0.24-0.32,0.24-0.55c0.08-0.31-0.08-0.47-0.24-0.55c-0.16-0.08-0.39-0.08-0.63-0.08
		h-1.58v1.26h1.58C213.07,401.75,213.31,401.75,213.47,401.67z"/>
	<path class="st2" d="M224.81,388.75v0.95l-0.47-0.95h-3.7v0.95l-0.47-0.95h-5.04c-0.87,0-1.58,0.16-2.21,0.47v-0.47h-3.54v0.08
		v0.39c-0.39-0.31-0.87-0.47-1.5-0.47h-12.68l-0.87,1.97l-0.87-1.97h-2.84h-1.18v0.95l-0.39-0.95h-0.08h-3.39l-1.58,3.7l-1.81,4.02
		l-0.03,0.08h0.03h4.02h0.05l0.03-0.08l0.47-1.18h1.02l0.47,1.26h4.57v-0.08v-0.87l0.39,0.95h2.28l0.39-0.95v0.87v0.08h1.81h9.06
		h0.08v-2.05h0.16c0.16,0,0.16,0,0.16,0.24v1.73h5.67V396c0.47,0.24,1.18,0.47,2.13,0.47h2.36l0.47-1.26h1.1l0.47,1.26h4.57v-0.79
		v-0.39l0.71,1.18h0.16h0.08h3.47v-7.72H224.81L224.81,388.75L224.81,388.75z M198.11,395.37h-0.79h-0.47v-0.47v-3.86l-0.08,0.18v0
		l-1.83,4.15h-0.06h-0.42h-0.68l-1.89-4.33v4.33h-2.68l-0.55-1.18h-2.68l-0.55,1.18h-1.38l2.33-5.51h1.97l2.21,5.28v-5.28h0.47h1.61
		l0.04,0.08h0l0.99,2.16l0.71,1.62l0.03-0.08l1.58-3.78h2.13L198.11,395.37L198.11,395.37L198.11,395.37z M203.54,391.04h-3.07v1.02
		h2.99v1.1h-2.99v1.1h3.07v1.18h-4.41v-5.59h4.41V391.04L203.54,391.04z M209.16,393.07C209.16,393.07,209.17,393.07,209.16,393.07
		c0.04,0.04,0.06,0.07,0.08,0.1c0.15,0.2,0.27,0.49,0.28,0.92c0,0.01,0,0.01,0,0.02c0,0,0,0.01,0,0.01c0,0,0,0,0,0.01
		c0,0.04,0,0.09,0,0.14v1.1h-1.18v-0.63c0-0.32,0-0.79-0.24-1.1c-0.07-0.07-0.15-0.12-0.23-0.16c-0.12-0.08-0.34-0.08-0.71-0.08
		h-1.42v1.97h-1.34v-5.51h2.99c0.71,0,1.18,0,1.58,0.24c0.39,0.23,0.62,0.62,0.63,1.22c-0.02,0.84-0.56,1.3-0.94,1.45
		C208.66,392.77,208.93,392.82,209.16,393.07z M211.81,395.37h-1.34v-5.51h1.34V395.37z M227.17,395.37h-1.73l-2.52-4.18v3.47
		l-0.01-0.01v0.72h-1.33v0h-1.34l-0.47-1.18h-2.76l-0.47,1.26h-1.5c-0.63,0-1.42-0.16-1.89-0.63c-0.47-0.47-0.71-1.1-0.71-2.13
		c0-0.79,0.16-1.58,0.71-2.21c0.39-0.47,1.1-0.63,1.97-0.63h1.26v1.18h-1.26c-0.47,0-0.71,0.08-1.02,0.32
		c-0.24,0.24-0.39,0.71-0.39,1.26c0,0.63,0.08,1.02,0.39,1.34c0.24,0.24,0.55,0.32,0.95,0.32h0.55l1.81-4.33h0.79h1.18l2.21,5.28
		v-0.27v-1.78v-0.16v-3.07h1.97l2.28,3.86v-3.86h1.34L227.17,395.37L227.17,395.37L227.17,395.37L227.17,395.37z"/>
	<path class="st2" d="M208.04,392.15c0.02-0.02,0.04-0.05,0.06-0.08c0.07-0.11,0.15-0.32,0.11-0.59c0-0.03-0.01-0.05-0.01-0.07
		c0-0.01,0-0.01,0-0.02l0,0c-0.04-0.13-0.14-0.22-0.24-0.27c-0.16-0.08-0.39-0.08-0.63-0.08h-1.58v1.26h1.58
		c0.24,0,0.47,0,0.63-0.08c0.02-0.01,0.04-0.03,0.07-0.05l0,0C208.02,392.17,208.03,392.16,208.04,392.15z"/>
	<path class="st2" d="M231.82,403.25c0-0.55-0.16-1.1-0.39-1.5v-3.54h0v-0.24c0,0-3.3,0-3.79,0c-0.49,0-1.09,0.47-1.09,0.47v-0.47
		h-3.62c-0.55,0-1.26,0.16-1.58,0.47v-0.47h-6.46v0.24v0.24c-0.47-0.39-1.34-0.47-1.73-0.47h-4.25v0.24v0.24
		c-0.39-0.39-1.34-0.47-1.81-0.47h-4.73l-1.1,1.18l-1.02-1.18h-0.33h-0.54h-6.22v0.24v0.62v7.1h6.93l1.14-1.14l0.99,1.14h0.08h3.99
		h0.18h0.08h0.08v-0.79v-1.02h0.39c0.55,0,1.26,0,1.81-0.24v1.97V406h3.54v-0.16v-1.89h0.16c0.24,0,0.24,0,0.24,0.24v1.65V406h10.71
		c0.71,0,1.42-0.16,1.81-0.47v0.32V406h3.39c0.71,0,1.42-0.08,1.89-0.39c0.73-0.44,1.18-1.21,1.25-2.12c0-0.03,0.01-0.05,0.01-0.08
		l0,0C231.82,403.35,231.82,403.3,231.82,403.25z M207.01,402.77h-1.58v0.24v0.47v0.47v0.87h-2.59l-1.51-1.73l-0.01,0.01l-0.07-0.08
		l-1.73,1.81h-5.04v-5.51h5.12l1.4,1.53l0.29,0.32l0.04-0.04l1.65-1.81h4.17c0.81,0,1.72,0.2,2.06,1.02
		c0.04,0.16,0.07,0.34,0.07,0.55C209.29,402.46,208.19,402.77,207.01,402.77z M214.89,402.7c0.16,0.24,0.24,0.55,0.24,1.02v1.1
		h-1.34v-0.71c0-0.32,0-0.87-0.24-1.1c-0.16-0.24-0.47-0.24-0.94-0.24h-1.42v2.05h-1.34v-5.59h2.99c0.63,0,1.18,0,1.58,0.24
		c0.39,0.24,0.71,0.63,0.71,1.26c0,0.87-0.55,1.34-0.95,1.5C214.57,402.38,214.81,402.54,214.89,402.7z M220.32,400.41h-3.07v1.02
		h2.99v1.1h-2.99v1.1h3.07v1.18h-4.41v-5.59h4.41V400.41z M223.63,404.82h-2.52v-1.18h2.52c0.24,0,0.39,0,0.55-0.16
		c0.08-0.08,0.16-0.24,0.16-0.39c0-0.16-0.08-0.31-0.16-0.39c-0.08-0.08-0.24-0.16-0.47-0.16c-1.26-0.08-2.76,0-2.76-1.73
		c0-0.79,0.47-1.65,1.89-1.65h2.6v1.34H223c-0.24,0-0.39,0-0.55,0.08c-0.16,0.08-0.16,0.24-0.16,0.39c0,0.24,0.16,0.32,0.31,0.39
		c0.16,0.08,0.32,0.08,0.47,0.08h0.71c0.71,0,1.18,0.16,1.5,0.47c0.24,0.24,0.39,0.63,0.39,1.18
		C225.68,404.27,224.97,404.82,223.63,404.82z M230.4,404.27c-0.31,0.32-0.87,0.55-1.65,0.55h-2.52v-1.18h2.52
		c0.24,0,0.39,0,0.55-0.16c0.08-0.08,0.16-0.24,0.16-0.39c0-0.16-0.08-0.31-0.16-0.39c-0.08-0.08-0.24-0.16-0.47-0.16
		c-1.26-0.08-2.76,0-2.76-1.73c0-0.75,0.43-1.42,1.48-1.63c0.13-0.02,0.26-0.03,0.41-0.03h2.6v1.34h-1.73h-0.63h-0.08
		c-0.24,0-0.39,0-0.55,0.08c-0.08,0.08-0.16,0.24-0.16,0.39c0,0.24,0.08,0.32,0.32,0.39c0.16,0.08,0.31,0.08,0.47,0.08h0.08h0.63
		c0.34,0,0.6,0.04,0.84,0.13c0.22,0.08,0.94,0.4,1.1,1.25c0.01,0.09,0.02,0.18,0.02,0.28C230.88,403.56,230.72,403.96,230.4,404.27z
		"/>
</g>
</svg>
