<svg version="1.1" id="Capa_1" xmlns="http://www.w3.org/2000/svg" xmlns:xlink="http://www.w3.org/1999/xlink" x="0px" y="0px"
	 viewBox="178 377 58 40" style="enable-background:new 178 377 58 40;" xml:space="preserve">
<style type="text/css">
	.st0{fill:#FFFFFF;}
	.st1{fill:#F79F1A;}
	.st2{fill:#059BBF;}
	.st3{opacity:0.15;fill:#202121;enable-background:new    ;}
</style>
<g>
	<path class="st0" d="M236,413.57c0,1.89-1.53,3.43-3.43,3.43h-51.14c-1.89,0-3.43-1.54-3.43-3.43v-33.14
		c0-1.89,1.53-3.43,3.43-3.43h51.14c1.89,0,3.43,1.54,3.43,3.43V413.57L236,413.57z"/>
	<path class="st1" d="M190.87,397.23l-1.36-6.53c-0.23-0.9-0.91-1.17-1.76-1.2h-6.24l-0.06,0.3
		C186.32,390.97,189.54,393.81,190.87,397.23z"/>
	<g>
		<polygon class="st2" points="205.34,389.62 201.31,389.62 198.79,404.41 202.81,404.41 		"/>
		<path class="st2" d="M193.33,404.4l6.34-14.76h-4.27l-3.95,10.09l-0.42-1.52c-0.77-1.83-2.99-4.47-5.58-6.13l3.61,12.33
			L193.33,404.4z"/>
		<path class="st2" d="M216.85,399.58c0.01-1.68-1.06-2.96-3.39-4.02c-1.41-0.68-2.27-1.14-2.26-1.83c0-0.61,0.73-1.27,2.31-1.27
			c1.32-0.02,2.27,0.27,3.02,0.57l0.36,0.17l0.55-3.2c-0.8-0.3-2.05-0.62-3.61-0.62c-3.98,0-6.79,2-6.81,4.88
			c-0.03,2.13,2,3.31,3.53,4.02c1.57,0.72,2.09,1.18,2.08,1.83c-0.01,0.99-1.25,1.44-2.41,1.44c-1.61,0-2.47-0.22-3.8-0.78
			l-0.52-0.24l-0.57,3.31c0.94,0.41,2.68,0.77,4.49,0.79C214.06,404.63,216.82,402.65,216.85,399.58z"/>
		<path class="st2" d="M221.64,402.19c0.46,0,4.57,0.01,5.16,0.01c0.12,0.51,0.49,2.22,0.49,2.22h3.74l-3.26-14.78h-3.11
			c-0.97,0-1.68,0.26-2.11,1.22l-5.99,13.55h4.24C220.8,404.42,221.48,402.59,221.64,402.19z M224.4,395.03
			c-0.02,0.04,0.33-0.86,0.54-1.41l0.27,1.28c0,0,0.77,3.53,0.93,4.27h-3.35C223.13,398.32,224.4,395.03,224.4,395.03z"/>
		<path class="st2" d="M232.57,377h-51.14c-1.89,0-3.43,1.53-3.43,3.43v3.56h58v-3.56C236,378.53,234.47,377,232.57,377z"/>
	</g>
	<path class="st1" d="M232.57,417h-51.14c-1.89,0-3.43-1.54-3.43-3.43v-3.56h58v3.56C236,415.46,234.47,417,232.57,417z"/>
</g>
<path class="st3" d="M180.44,413.57v-33.14c0-1.89,1.54-3.43,3.43-3.43h-2.44c-1.89,0-3.43,1.53-3.43,3.43v33.14
	c0,1.89,1.53,3.43,3.43,3.43h2.44C181.97,417,180.44,415.46,180.44,413.57z"/>
</svg>
