<svg version="1.1" id="Capa_1" xmlns="http://www.w3.org/2000/svg" xmlns:xlink="http://www.w3.org/1999/xlink" x="0px" y="0px"
	 viewBox="178 377 58 40" style="enable-background:new 178 377 58 40;" xml:space="preserve">
<style type="text/css">
	.st0{fill:#92DBEF;}
	.st1{opacity:0.15;fill:#202121;enable-background:new    ;}
	.st2{fill:#263B80;}
	.st3{fill:#232C65;}
	.st4{fill:#139AD6;}
</style>
<path class="st0" d="M236,413.57c0,1.89-1.53,3.43-3.43,3.43h-51.14c-1.89,0-3.43-1.54-3.43-3.43v-33.14c0-1.89,1.53-3.43,3.43-3.43
	h51.14c1.89,0,3.43,1.54,3.43,3.43V413.57L236,413.57z"/>
<path class="st1" d="M180.44,413.57v-33.14c0-1.89,1.54-3.43,3.43-3.43h-2.44c-1.89,0-3.43,1.53-3.43,3.43v33.14
	c0,1.89,1.53,3.43,3.43,3.43h2.44C181.97,417,180.44,415.46,180.44,413.57z"/>
<path class="st2" d="M215.66,384.82c-1.27-1.45-3.63-2.18-6.9-2.18h-9.08c-0.55,0-1.09,0.55-1.27,1.09l-3.63,23.79
	c0,0.55,0.36,0.91,0.73,0.91h5.63l1.45-8.9v0.36c0.18-0.55,0.73-1.09,1.27-1.09h2.72c5.27,0,9.26-2.18,10.53-8.17v-0.54
	c-0.18,0-0.18,0,0,0C217.29,387.72,216.93,386.27,215.66,384.82"/>
<path class="st3" d="M217.11,390.63v-0.54c0-0.02,0-0.03,0-0.05c-0.32-0.22-0.63-0.38-0.86-0.48c-1.1-0.46-2.23-0.54-2.75-0.55l0,0
	h-2.65c0,0,0,0,0,0h-5.55c-0.94,0.03-1.2,0.8-1.27,1.13l-1.45,9.4v0.22v0.14c0.18-0.55,0.73-1.09,1.27-1.09h2.72
	C211.85,398.8,215.84,396.62,217.11,390.63z"/>
<path class="st4" d="M218.89,392.33c-0.41-1.13-1.14-1.86-1.78-2.3c0,0.02,0,0.03,0,0.05v0.54c-1.27,5.99-5.26,8.17-10.53,8.17
	h-2.72c-0.55,0-1.09,0.54-1.27,1.09v-0.14c-0.02,0.05-0.04,0.09-0.06,0.14l-1.03,6.26l-0.37,2.27h0l-0.42,2.54
	c0,0.36,0.18,0.73,0.73,0.73h4.53c0.91,0,1.2-0.71,1.28-1.09l0.04-0.24v0l0.87-5.39c0,0,0.11-1.27,1.35-1.27h0.46
	c4.54,0,8.17-1.82,9.08-7.26C219.31,394.92,219.29,393.49,218.89,392.33z"/>
</svg>
