<svg version="1.1" id="Layer_1" xmlns="http://www.w3.org/2000/svg" xmlns:xlink="http://www.w3.org/1999/xlink" x="0px" y="0px"
	 viewBox="0 0 55.65 40" style="enable-background:new 0 0 55.65 40;" xml:space="preserve">
<style type="text/css">
	.st0{fill:#E4E7E7;}
	.st1{fill:#324D5B;}
	.st2{fill:#F4B459;}
</style>
<g>
	<path class="st0" d="M3.48,0h48.69c1.92,0,3.48,1.56,3.48,3.48v33.04c0,1.92-1.56,3.48-3.48,3.48H3.48C1.56,40,0,38.44,0,36.52
		V3.48C0,1.56,1.56,0,3.48,0L3.48,0z M3.48,0"/>
	<path class="st1" d="M11.19,6.95H6.95v13.92h4.22c2.24,0,3.86-0.5,5.28-1.61c1.68-1.32,2.68-3.3,2.68-5.35
		C19.13,9.81,15.87,6.95,11.19,6.95L11.19,6.95z M14.33,16.54c-0.75,0.58-1.72,0.83-3.26,0.83h-0.64v-6.93h0.64
		c1.54,0,2.47,0.23,3.26,0.84c0.82,0.63,1.32,1.6,1.32,2.61C15.65,14.91,15.16,15.92,14.33,16.54L14.33,16.54z M20.87,20.87h3.45
		V6.93h-3.45V20.87z M32.17,12.32c-1.76-0.58-2.28-0.96-2.28-1.68c0-0.84,0.92-1.48,2.19-1.48c0.88,0,1.6,0.32,2.37,1.08l1.53-1.78
		c-1.27-0.98-2.78-1.48-4.43-1.48c-2.66,0-4.7,1.64-4.7,3.82c0,1.84,0.95,2.78,3.7,3.66c1.15,0.36,1.74,0.6,2.03,0.76
		c0.59,0.34,0.88,0.82,0.88,1.38c0,1.08-0.97,1.88-2.28,1.88c-1.4,0-2.53-0.62-3.21-1.78l-1.89,1.62c1.35,1.76,2.98,2.54,5.21,2.54
		c3.05,0,5.19-1.8,5.19-4.38C36.5,14.37,35.51,13.41,32.17,12.32L32.17,12.32z M41.75,13.89c0-2.17,1.75-3.88,3.97-3.88
		c1.13,0,1.99,0.37,2.97,1.27l0-3.52c-1.16-0.57-2.12-0.81-3.26-0.81c-4.01,0-7.22,3.09-7.22,6.95c0,3.91,3.13,6.93,7.16,6.93
		c1.14,0,2.12-0.22,3.32-0.77l0-3.52c-0.95,0.88-1.79,1.24-2.86,1.24C43.44,17.79,41.75,16.18,41.75,13.89L41.75,13.89z
		 M41.75,13.89"/>
	<path class="st2" d="M52.17,40c1.92,0,3.48-1.56,3.48-3.48V22.61L24.35,40H52.17z M52.17,40"/>
</g>
</svg>
