<svg version="1.1" id="Capa_1" xmlns="http://www.w3.org/2000/svg" xmlns:xlink="http://www.w3.org/1999/xlink" x="0px" y="0px"
	 viewBox="172 348.35 70 87.3" style="enable-background:new 172 348.35 70 87.3;" xml:space="preserve">
<style type="text/css">
	.st0{fill:#49D0E5;}
	.st1{fill:#1BC4DE;}
	.st2{fill:#FDE180;}
	.st3{fill:#FCDA60;}
</style>
<g>
	<g>
		<polygon class="st0" points="226.46,434.24 230.61,424.28 240.57,428.44 220.28,389.04 206.16,394.83 		"/>
		<polygon class="st0" points="187.55,434.24 183.39,424.28 173.43,428.44 193.72,389.04 207.84,394.83 		"/>
		<polygon class="st0" points="226.13,403.29 221.65,408.9 213.95,408.9 212.27,409.71 226.46,434.24 230.61,424.28 240.57,428.44 
					"/>
		<polygon class="st0" points="192.35,408.9 187.87,403.29 173.43,428.44 183.39,424.28 187.55,434.24 201.73,409.71 200.06,408.9 
					"/>
	</g>
	<g>
		<polygon class="st1" points="221.65,408.9 226.13,403.29 220.28,389.04 207,394.49 207.84,394.83 207,396.87 212.27,409.71 
			213.95,408.9 		"/>
		<polygon class="st1" points="206.16,394.83 207,394.49 193.72,389.04 187.87,403.29 192.35,408.9 200.06,408.9 201.73,409.71 
			207,396.87 		"/>
	</g>
	<g>
		<polygon class="st0" points="207,396.87 207.84,394.83 207,394.49 206.16,394.83 		"/>
		<polygon class="st0" points="207,349.78 212.9,352.62 219.45,352.62 223.53,357.74 229.43,360.59 230.89,366.97 234.97,372.09 
			233.52,378.48 234.97,384.86 230.89,389.98 229.43,396.36 223.53,399.21 219.45,404.33 212.9,404.33 207,407.17 201.1,404.33 
			194.55,404.33 190.47,399.21 184.57,396.36 183.11,389.98 179.03,384.86 180.48,378.48 179.03,372.09 183.11,366.97 
			184.57,360.59 190.47,357.74 194.55,352.62 201.1,352.62 		"/>
	</g>
	<circle class="st2" cx="207" cy="378.48" r="19.84"/>
	<path class="st3" d="M211.58,395.56c-10.96,0-19.84-8.88-19.84-19.84c0-6.26,2.9-11.85,7.43-15.48
		c-7.06,3.04-12.01,10.06-12.01,18.23c0,10.96,8.88,19.84,19.84,19.84c4.69,0,9.01-1.63,12.4-4.36
		C217,394.99,214.36,395.56,211.58,395.56z"/>
	<path d="M241.89,427.9l-15.75-28.36l3.91-1.89c0.39-0.19,0.68-0.55,0.77-0.97l1.38-6.07l3.88-4.87c0.27-0.34,0.37-0.79,0.28-1.21
		l-1.38-6.07l1.38-6.07c0.1-0.42,0-0.87-0.28-1.21l-3.88-4.87l-1.38-6.07c-0.1-0.42-0.38-0.78-0.77-0.97l-5.61-2.7l-3.88-4.86
		c-0.27-0.34-0.68-0.54-1.12-0.54h-6.22l-5.61-2.7c-0.39-0.19-0.85-0.19-1.24,0l-5.61,2.7h-6.22c-0.44,0-0.85,0.2-1.12,0.54
		l-3.88,4.86l-5.61,2.7c-0.39,0.19-0.68,0.55-0.77,0.97l-1.38,6.07l-3.88,4.87c-0.27,0.34-0.37,0.79-0.28,1.21l1.38,6.07l-1.38,6.07
		c-0.1,0.42,0,0.87,0.28,1.21l3.88,4.87l1.38,6.07c0.1,0.42,0.38,0.78,0.77,0.97l3.91,1.89l-15.75,28.36
		c-0.47,1.15,0.72,2.34,1.87,1.86l8.64-3.61l3.61,8.64c0.48,1.15,2.17,1.15,2.64-0.01l15.35-27.37l2.16,1.04
		c0.2,0.09,0.41,0.14,0.62,0.14c0.21,0,0.42-0.05,0.62-0.14l2.16-1.04l15.35,27.37c0.47,1.16,2.16,1.16,2.64,0.01l3.61-8.64
		l8.64,3.61C241.17,430.24,242.37,429.05,241.89,427.9z M187.53,430.5l-2.83-6.77c-0.3-0.73-1.14-1.07-1.87-0.77l-6.77,2.83
		l14.19-24.55l3.18,3.98c0.27,0.34,0.68,0.54,1.12,0.54h6.22l0.86,0.41L187.53,430.5z M207,405.58l-5.28-2.54
		c-0.19-0.09-0.41-0.14-0.62-0.14h-5.86l-3.65-4.58c-0.13-0.17-0.3-0.3-0.5-0.4l-5.28-2.54l-1.3-5.71
		c-0.05-0.21-0.14-0.41-0.28-0.57l-3.65-4.58l1.3-5.71c0.05-0.21,0.05-0.43,0-0.64l-1.3-5.71l3.65-4.58
		c0.13-0.17,0.23-0.36,0.28-0.57l1.3-5.71l5.28-2.54c0.19-0.09,0.36-0.23,0.5-0.4l3.65-4.58h5.86c0.21,0,0.43-0.05,0.62-0.14
		l5.28-2.54l5.28,2.54c0.19,0.09,0.41,0.14,0.62,0.14h5.86l3.65,4.58c0.13,0.17,0.3,0.3,0.5,0.4l5.28,2.54l1.3,5.71
		c0.05,0.21,0.14,0.41,0.28,0.57l3.65,4.58l-1.3,5.71c-0.05,0.21-0.05,0.43,0,0.64l1.3,5.71l-3.65,4.58
		c-0.13,0.17-0.23,0.36-0.28,0.57l-1.3,5.71l-5.28,2.54c-0.19,0.09-0.36,0.23-0.5,0.4l-3.65,4.58h-5.86c-0.21,0-0.43,0.05-0.62,0.14
		L207,405.58z M231.17,422.96c-0.73-0.3-1.57,0.04-1.87,0.77l-2.83,6.77l-14.1-24.33l0.86-0.41h6.22c0.44,0,0.85-0.2,1.12-0.54
		l3.18-3.98l14.19,24.55L231.17,422.96z"/>
	<path d="M228.27,378.47c0-4.88-1.7-9.65-4.78-13.43c-0.5-0.61-1.4-0.7-2.01-0.2c-0.61,0.5-0.7,1.4-0.2,2.01
		c2.67,3.27,4.13,7.4,4.13,11.62c0,10.15-8.26,18.41-18.41,18.41c-10.15,0-18.41-8.26-18.41-18.41s8.26-18.41,18.41-18.41
		c3.18,0,6.31,0.82,9.06,2.38c0.69,0.39,1.56,0.15,1.95-0.54c0.39-0.69,0.15-1.56-0.54-1.95c-3.18-1.8-6.8-2.75-10.47-2.75
		c-11.73,0-21.27,9.54-21.27,21.27s9.54,21.27,21.27,21.27C218.73,399.74,228.27,390.2,228.27,378.47z"/>
	<path d="M213.37,375.33c0.79,0,1.43-0.64,1.43-1.43v-1.53c0-3.31-2.7-6.01-6.01-6.01h-0.1v-3.15c0-0.79-0.64-1.43-1.43-1.43
		c-0.79,0-1.43,0.64-1.43,1.43v3.18c-3.42,0.34-6.1,3.23-6.1,6.74c0,3.73,3.04,6.77,6.77,6.77h1.53c2.16,0,3.91,1.75,3.91,3.91
		s-1.75,3.91-3.91,3.91h-2.29c-1.74,0-3.15-1.41-3.15-3.15c0-0.79-0.64-1.43-1.43-1.43c-0.79,0-1.43,0.64-1.43,1.43
		c0,3.31,2.7,6.01,6.01,6.01h0.1v3.15c0,0.79,0.64,1.43,1.43,1.43c0.79,0,1.43-0.64,1.43-1.43v-3.18c3.42-0.34,6.1-3.23,6.1-6.74
		c0-3.73-3.04-6.77-6.77-6.77h-1.53c-2.16,0-3.91-1.75-3.91-3.91s1.75-3.91,3.91-3.91h2.29c1.74,0,3.15,1.41,3.15,3.15v1.53
		C211.94,374.69,212.58,375.33,213.37,375.33z"/>
</g>
</svg>
