<svg version="1.1" id="Layer_1" xmlns="http://www.w3.org/2000/svg" xmlns:xlink="http://www.w3.org/1999/xlink" x="0px" y="0px"
	 viewBox="0 0 498 512" style="enable-background:new 0 0 498 512;" xml:space="preserve">
<style type="text/css">
	.st0{fill:#75CFF2;}
	.st1{fill:#53B4E4;}
	.st2{fill:#FFE471;}
	.st3{fill:#F2CA20;}
	.st4{fill:#F43B45;}
	.st5{clip-path:url(#SVGID_2_);}
</style>
<g>
	<path class="st0" d="M478.46,129.28c-44.58-18.81-75.54-61-79.53-109.96c-0.55-6.69-6.2-11.82-12.92-11.82H111.49
		c-6.79,0-12.38,5.25-12.94,12.02C94.5,68.44,63.5,110.57,18.91,129.33c-7.55,3.18-12.12,10.93-11.32,19.08
		c5.89,59.68,41.02,263,238.52,355.5c0.82,0.39,1.72,0.59,2.63,0.59c0.91,0,1.81-0.2,2.63-0.59
		c197.49-92.5,232.63-295.8,238.52-355.5C490.72,140.21,486.06,132.48,478.46,129.28L478.46,129.28z M478.46,129.28"/>
	<path class="st1" d="M478.46,129.28c-44.58-18.81-75.54-61-79.53-109.96c-0.55-6.69-6.2-11.82-12.92-11.82h-42.8
		c1.63,53.15,38.15,118.71,84.91,138.44c7.6,3.2,12.26,10.93,11.45,19.14c-5.49,55.66-36.43,236.21-200.73,335.33
		c2.4,1.18,4.82,2.35,7.27,3.5c0.82,0.38,1.72,0.58,2.63,0.58c0.91,0,1.81-0.2,2.63-0.58c197.49-92.51,232.63-295.8,238.52-355.5
		C490.72,140.21,486.06,132.48,478.46,129.28L478.46,129.28z M478.46,129.28"/>
	<path class="st2" d="M251.51,464.78c-1.73,0.91-3.8,0.91-5.52,0c-69.67-36.44-123.3-92.32-159.54-166.33
		c-27.03-55.2-37.86-107.85-42.12-137.91c-0.35-2.45,0.84-4.88,3.02-6.06c41.63-22.55,71.37-61.58,82.19-107.4
		c0.63-2.68,3.04-4.57,5.79-4.57h226.83c2.75,0,5.16,1.89,5.79,4.57c10.82,45.81,40.55,84.84,82.19,107.4
		c2.18,1.18,3.36,3.61,3.02,6.06c-4.26,30.05-15.09,82.71-42.12,137.92C374.81,372.46,321.19,428.34,251.51,464.78L251.51,464.78z
		 M251.51,464.78"/>
	<path class="st3" d="M450.15,154.48c-41.64-22.56-71.37-61.59-82.19-107.4c-0.63-2.68-3.04-4.57-5.79-4.57h-50.33
		c2.75,0,5.16,1.88,5.79,4.57c10.82,45.81,40.55,84.84,82.2,107.4c2.18,1.18,3.36,3.61,3.02,6.06
		c-4.26,30.05-15.09,82.71-42.12,137.92c-32.25,65.85-78.29,117.35-137.13,153.57c7.28,4.48,14.73,8.74,22.4,12.75
		c1.73,0.9,3.8,0.9,5.52,0c69.67-36.44,123.3-92.32,159.54-166.32c27.04-55.21,37.87-107.87,42.12-137.92
		C453.52,158.09,452.33,155.66,450.15,154.48L450.15,154.48z M450.15,154.48"/>
	<path class="st4" d="M273.03,343.88c0,12.85-11.07,24.28-24.28,24.28c-13.93,0-24.28-11.43-24.28-24.28
		c0-13.22,10.36-24.28,24.28-24.28C261.96,319.6,273.03,330.66,273.03,343.88L273.03,343.88z M265.89,280.32
		c0,9.64-10.36,13.57-17.5,13.57c-9.28,0-17.5-3.93-17.5-13.57c0-47.14-4.64-109.98-4.64-157.12c0-12.5,9.64-19.64,22.14-19.64
		c12.14,0,22.5,7.14,22.5,19.64C270.89,170.34,265.89,233.18,265.89,280.32L265.89,280.32z M265.89,280.32"/>
	<g>
		<defs>
			<rect id="SVGID_1_" x="0" width="498" height="512"/>
		</defs>
		<clipPath id="SVGID_2_">
			<use xlink:href="#SVGID_1_"  style="overflow:visible;"/>
		</clipPath>
		<path class="st5" d="M248.75,375.66c-17.52,0-31.78-14.26-31.78-31.78c0-17.82,13.96-31.78,31.78-31.78
			c17.23,0,31.78,14.55,31.78,31.78C280.53,361.1,265.98,375.66,248.75,375.66L248.75,375.66z M248.75,327.1
			c-9.41,0-16.78,7.37-16.78,16.78c0,9.25,7.53,16.78,16.78,16.78c8.94,0,16.78-7.84,16.78-16.78
			C265.53,334.78,257.85,327.1,248.75,327.1L248.75,327.1z M248.39,301.39c-15.18,0-25-8.27-25-21.07c0-23.41-1.18-51.29-2.31-78.24
			c-1.14-27.11-2.33-55.15-2.33-78.87c0-15.98,12.19-27.14,29.64-27.14c17.38,0,30,11.41,30,27.14c0,23.74-1.27,51.78-2.51,78.9
			c-1.23,26.95-2.49,54.82-2.49,78.22C273.39,293.28,260.24,301.39,248.39,301.39L248.39,301.39z M248.39,111.06
			c-3.43,0-14.64,0.88-14.64,12.14c0,23.41,1.18,51.29,2.31,78.24c1.14,27.11,2.33,55.15,2.33,78.87c0,4.03,3.36,6.07,10,6.07
			c3.13,0,10-1.53,10-6.07c0-23.74,1.27-51.78,2.5-78.9c1.23-26.95,2.49-54.82,2.49-78.22
			C263.39,114.24,255.31,111.06,248.39,111.06L248.39,111.06z M248.39,111.06"/>
		<path class="st5" d="M248.75,512c-2,0-4.01-0.45-5.82-1.29c-86-40.29-151.5-105.41-194.67-193.56
			C12.6,244.31,2.72,175.39,0.13,149.14c-1.14-11.51,5.24-22.25,15.88-26.73C58.5,104.54,87.27,64.87,91.08,18.9
			C91.97,8.12,100.75,0,111.49,0h274.52c10.58,0,19.54,8.22,20.39,18.71c3.75,46,32.47,85.72,74.97,103.65
			c10.7,4.52,17.13,15.28,16,26.78c-2.59,26.25-12.47,95.17-48.14,168.01c-43.17,88.15-108.66,153.26-194.67,193.55
			C252.76,511.55,250.75,512,248.75,512L248.75,512z M111.49,15c-2.87,0-5.22,2.21-5.46,5.14c-4.28,51.56-36.54,96.05-84.21,116.1
			c-4.53,1.91-7.25,6.5-6.76,11.43c2.51,25.44,12.08,92.23,46.68,162.88c41.53,84.81,104.45,147.49,187.01,186.31
			c82.56-38.82,145.48-101.5,187.01-186.3c34.6-70.64,44.18-137.44,46.68-162.88c0.49-4.93-2.28-9.55-6.89-11.5
			c-47.67-20.11-79.89-64.66-84.09-116.26c-0.22-2.77-2.62-4.93-5.44-4.93H111.49z M111.49,15"/>
	</g>
	<path d="M404.92,310.64c-3.68-1.89-5.17-6.39-3.3-10.08c0.91-1.79,1.8-3.59,2.69-5.4c26.84-54.79,37.36-107.45,41.29-134.62
		c-42.42-23.34-73.19-63.51-84.64-110.52h-224.4c-4.43,18.18-11.72,35.39-21.66,51.19c-2.21,3.51-6.84,4.56-10.34,2.35
		c-3.5-2.21-4.55-6.84-2.35-10.34c9.28-14.75,16.03-30.85,20.05-47.86c1.44-6.09,6.82-10.34,13.09-10.34h226.83
		c6.27,0,11.66,4.25,13.09,10.34c10.33,43.73,38.93,81.11,78.47,102.53c4.89,2.65,7.66,8.16,6.87,13.71
		c-4.81,33.86-16.13,85.67-42.82,140.16c-0.92,1.88-1.85,3.73-2.79,5.59C413.72,309.88,409.38,312.94,404.92,310.64L404.92,310.64z
		 M404.92,310.64"/>
	<path d="M248.75,472.96c-2.15,0-4.29-0.51-6.24-1.53c-71.1-37.19-125.87-94.27-162.8-169.68c-26.69-54.5-38.01-106.3-42.81-140.16
		c-0.79-5.55,1.98-11.05,6.87-13.71c13.85-7.5,26.44-16.97,37.44-28.16c2.9-2.95,7.65-2.99,10.6-0.09c2.95,2.9,2.99,7.65,0.09,10.6
		c-11.78,11.98-25.24,22.17-40,30.29c3.93,27.16,14.45,79.82,41.28,134.61c35.37,72.23,87.7,126.93,155.56,162.61
		c56.11-29.5,101.81-72.2,135.84-126.92c2.19-3.52,6.81-4.6,10.33-2.41c3.52,2.19,4.59,6.81,2.41,10.33
		c-35.61,57.25-83.49,101.89-142.33,132.67C253.04,472.45,250.89,472.96,248.75,472.96L248.75,472.96z M248.75,472.96"/>
</g>
</svg>
